<svg width="934" height="934" viewBox="0 0 934 934" fill="none" xmlns="http://www.w3.org/2000/svg">
<path fill-rule="evenodd" clip-rule="evenodd" d="M149.948 210.038C145.256 210.236 140.787 212.095 137.344 215.288C133.902 218.481 131.704 222.793 131.152 227.455C130.594 232.121 131.719 236.824 134.323 240.736L285.137 466.949L134.323 693.163V693.157C131.209 697.829 130.225 703.6 131.62 709.032C133.011 714.469 136.652 719.058 141.626 721.652C146.6 724.245 152.443 724.605 157.699 722.636L790.179 485.449C795.231 483.554 799.288 479.673 801.413 474.715C803.533 469.751 803.533 464.137 801.413 459.179C799.288 454.215 795.231 450.335 790.179 448.439L157.699 211.253C155.225 210.326 152.59 209.904 149.949 210.018L149.948 210.038ZM201.214 269.798L726.96 466.971L201.2 664.131L325.336 477.918C327.498 474.668 328.654 470.855 328.654 466.954C328.654 463.048 327.498 459.236 325.336 455.991L201.216 269.791L201.214 269.798Z" fill="black"/>
</svg>
