<svg width="934" height="934" viewBox="0 0 934 934" fill="none" xmlns="http://www.w3.org/2000/svg">
<path fill-rule="evenodd" clip-rule="evenodd" d="M210.038 784.055C210.236 788.742 212.095 793.211 215.288 796.654C218.481 800.102 222.793 802.294 227.455 802.852C232.116 803.404 236.824 802.279 240.736 799.68L466.949 648.866L693.162 799.68H693.157C697.824 802.789 703.595 803.773 709.032 802.378C714.464 800.987 719.053 797.346 721.647 792.372C724.245 787.398 724.6 781.555 722.636 776.299L485.449 143.819C483.554 138.767 479.673 134.71 474.71 132.59C469.751 130.47 464.137 130.47 459.174 132.59C454.21 134.71 450.335 138.767 448.434 143.819L211.248 776.299H211.253C210.326 778.773 209.904 781.414 210.018 784.054L210.038 784.055ZM269.798 732.789L466.971 207.043L664.131 732.803L477.918 608.667H477.913C474.668 606.5 470.85 605.349 466.949 605.349C463.048 605.349 459.236 606.5 455.986 608.667L269.799 732.787L269.798 732.789Z" fill="black"/>
</svg>
