<svg width="934" height="934" viewBox="0 0 934 934" fill="none" xmlns="http://www.w3.org/2000/svg">
<path fill-rule="evenodd" clip-rule="evenodd" d="M145.217 425.904C142.035 429.363 140.196 433.836 140.014 438.529C139.837 443.222 141.332 447.826 144.238 451.514C147.144 455.201 151.269 457.738 155.874 458.659L422.474 511.977L475.791 778.577H475.786C476.885 784.077 480.275 788.853 485.103 791.712C489.932 794.566 495.744 795.238 501.098 793.556C506.452 791.874 510.838 787.994 513.161 782.889L792.681 167.943C794.91 163.026 795.035 157.417 793.03 152.407C791.019 147.401 787.05 143.433 782.04 141.422C777.035 139.412 771.42 139.537 766.509 141.771L151.563 421.291C149.156 422.385 146.995 423.953 145.209 425.901L145.217 425.904ZM223.723 431.909L734.909 199.576L502.549 710.763L458.653 491.323V491.318C457.888 487.495 456.007 483.979 453.247 481.219C450.487 478.463 446.971 476.583 443.148 475.817L223.723 431.909Z" fill="black"/>
</svg>
