<svg width="934" height="934" viewBox="0 0 934 934" fill="none" xmlns="http://www.w3.org/2000/svg">
<path fill-rule="evenodd" clip-rule="evenodd" d="M789.231 425.9C792.413 429.359 794.252 433.832 794.434 438.525C794.611 443.218 793.116 447.822 790.21 451.51C787.304 455.197 783.179 457.734 778.574 458.655L511.974 511.973L458.657 778.573H458.662C457.563 784.073 454.173 788.849 449.345 791.708C444.516 794.562 438.704 795.234 433.35 793.552C427.996 791.87 423.61 787.989 421.287 782.885L141.767 167.939C139.538 163.027 139.413 157.413 141.418 152.408C143.429 147.398 147.398 143.429 152.408 141.418C157.413 139.413 163.028 139.538 167.939 141.767L782.885 421.287C785.292 422.381 787.453 423.949 789.239 425.897L789.231 425.9ZM710.725 431.905L199.539 199.572L431.899 710.759L475.795 491.319V491.313C476.56 487.491 478.441 483.975 481.201 481.215C483.961 478.459 487.477 476.579 491.3 475.813L710.725 431.905Z" fill="black"/>
</svg>
