<svg width="934" height="934" viewBox="0 0 934 934" fill="none" xmlns="http://www.w3.org/2000/svg">
<path fill-rule="evenodd" clip-rule="evenodd" d="M210.031 149.946C210.229 145.259 212.089 140.79 215.281 137.342C218.474 133.899 222.787 131.707 227.448 131.149C232.11 130.597 236.818 131.722 240.729 134.321L466.943 285.134L693.156 134.321C697.823 131.207 703.593 130.227 709.031 131.618C714.463 133.014 719.052 136.649 721.645 141.623C724.244 146.603 724.598 152.446 722.635 157.697L485.448 790.177V790.182C483.552 795.234 479.672 799.291 474.709 801.411C469.75 803.531 464.136 803.531 459.173 801.411C454.209 799.291 450.334 795.234 448.438 790.182L211.251 157.702C210.324 155.228 209.908 152.593 210.017 149.952L210.031 149.946ZM269.791 201.211L466.965 726.958L664.125 201.198L477.911 325.334H477.906C474.661 327.496 470.844 328.652 466.943 328.652C463.042 328.652 459.229 327.496 455.979 325.334L269.792 201.214L269.791 201.211Z" fill="black"/>
</svg>
