<svg width="934" height="934" viewBox="0 0 934 934" fill="none" xmlns="http://www.w3.org/2000/svg">
<path fill-rule="evenodd" clip-rule="evenodd" d="M145.217 508.561C142.04 505.103 140.196 500.629 140.014 495.936C139.837 491.244 141.337 486.64 144.238 482.952C147.144 479.265 151.269 476.728 155.874 475.806L422.474 422.489L475.791 155.889C476.89 150.389 480.28 145.613 485.109 142.753C489.937 139.899 495.749 139.227 501.103 140.91C506.457 142.592 510.843 146.467 513.166 151.576L792.686 766.523C794.915 771.434 795.04 777.049 793.035 782.059C791.024 787.064 787.056 791.033 782.045 793.043C777.04 795.054 771.425 794.924 766.515 792.694L151.568 513.174C149.162 512.081 147 510.513 145.214 508.565L145.217 508.561ZM223.722 502.556L734.909 734.89L502.549 223.703L458.653 443.143C457.887 446.971 456.007 450.487 453.247 453.242C450.486 456.002 446.971 457.883 443.148 458.648L223.722 502.556Z" fill="black"/>
</svg>
