<svg width="934" height="934" viewBox="0 0 934 934" fill="none" xmlns="http://www.w3.org/2000/svg">
<path fill-rule="evenodd" clip-rule="evenodd" d="M789.235 508.561C792.418 505.103 794.256 500.629 794.438 495.936C794.615 491.244 793.115 486.64 790.214 482.952C787.308 479.265 783.183 476.728 778.579 475.806L511.979 422.489L458.662 155.889C457.563 150.389 454.177 145.613 449.344 142.753C444.516 139.899 438.703 139.227 433.349 140.91C427.995 142.592 423.61 146.467 421.287 151.576L141.767 766.523C139.537 771.434 139.412 777.049 141.423 782.054C143.428 787.064 147.397 791.033 152.407 793.043C157.418 795.048 163.027 794.924 167.938 792.694L782.885 513.174C785.291 512.081 787.452 510.513 789.239 508.565L789.235 508.561ZM710.73 502.556L199.543 734.89L431.903 223.703L475.799 443.143C476.565 446.971 478.45 450.487 481.206 453.242C483.966 456.002 487.482 457.883 491.304 458.648L710.73 502.556Z" fill="black"/>
</svg>
