<svg width="934" height="934" viewBox="0 0 934 934" fill="none" xmlns="http://www.w3.org/2000/svg">
<path fill-rule="evenodd" clip-rule="evenodd" d="M784.06 723.859C788.753 723.661 793.221 721.797 796.664 718.609C800.107 715.416 802.305 711.104 802.857 706.437C803.409 701.776 802.289 697.067 799.685 693.161L648.872 466.948L799.685 240.735H799.68C802.794 236.063 803.779 230.292 802.383 224.86C800.992 219.422 797.352 214.834 792.378 212.24C787.404 209.646 781.56 209.287 776.304 211.256L143.824 448.429C138.772 450.325 134.715 454.205 132.59 459.169C130.47 464.127 130.47 469.742 132.59 474.705C134.715 479.668 138.772 483.543 143.824 485.444L776.304 722.631V722.626C778.778 723.553 781.414 723.97 784.054 723.86L784.06 723.859ZM732.795 664.104L207.048 466.931L732.808 269.771L608.672 455.984V455.979C606.51 459.229 605.354 463.042 605.354 466.943C605.354 470.844 606.51 474.662 608.677 477.906L732.797 664.093L732.795 664.104Z" fill="black"/>
</svg>
